<svg xmlns="http://www.w3.org/2000/svg" xmlns:xlink="http://www.w3.org/1999/xlink" width="1024" zoomAndPan="magnify" viewBox="0 0 768 767.999994" height="1024" preserveAspectRatio="xMidYMid meet" version="1.0"><defs><clipPath id="f38a2cd24e"><path d="M 279 102.144531 L 489 102.144531 L 489 180 L 279 180 Z M 279 102.144531 " clip-rule="nonzero"/></clipPath><clipPath id="457e9a99a1"><path d="M 76.90625 623 L 690.980469 623 L 690.980469 665.992188 L 76.90625 665.992188 Z M 76.90625 623 " clip-rule="nonzero"/></clipPath></defs><path fill="#a4536c" d="M 253.746094 623.6875 L 514.136719 623.6875 L 514.136719 208.730469 L 253.746094 208.730469 Z M 519.175781 633.742188 L 248.710938 633.742188 C 245.9375 633.742188 243.671875 631.496094 243.671875 628.707031 L 243.671875 203.691406 C 243.671875 200.921875 245.9375 198.65625 248.710938 198.65625 L 519.175781 198.65625 C 521.945312 198.65625 524.210938 200.921875 524.210938 203.691406 L 524.210938 628.707031 C 524.210938 631.496094 521.945312 633.742188 519.175781 633.742188 " fill-opacity="1" fill-rule="nonzero"/><path fill="#a4536c" d="M 647.976562 633.742188 L 519.175781 633.742188 C 516.402344 633.742188 514.136719 631.496094 514.136719 628.707031 L 514.136719 284.199219 C 514.136719 281.40625 516.402344 279.160156 519.175781 279.160156 C 520.503906 279.160156 521.710938 279.667969 522.589844 280.507812 L 651.058594 380.867188 L 647.976562 384.808594 L 651.078125 380.847656 C 652.328125 381.84375 652.992188 383.304688 652.992188 384.808594 L 652.992188 628.707031 C 652.992188 631.496094 650.746094 633.742188 647.976562 633.742188 Z M 524.210938 623.6875 L 642.9375 623.6875 L 642.9375 387.230469 L 524.210938 294.484375 L 524.210938 623.6875 " fill-opacity="1" fill-rule="nonzero"/><path fill="#a4536c" d="M 275.0625 235.160156 L 310.183594 235.160156 C 312.953125 235.160156 315.21875 237.40625 315.21875 240.179688 L 315.21875 275.316406 C 315.21875 278.085938 312.953125 280.351562 310.183594 280.351562 L 275.0625 280.351562 C 272.273438 280.351562 270.027344 278.085938 270.027344 275.316406 L 270.027344 240.179688 C 270.027344 237.40625 272.273438 235.160156 275.0625 235.160156 Z M 305.144531 245.214844 L 280.082031 245.214844 L 280.082031 270.277344 L 305.144531 270.277344 L 305.144531 245.214844 " fill-opacity="1" fill-rule="nonzero"/><path fill="#a4536c" d="M 335.949219 235.160156 L 371.070312 235.160156 C 373.839844 235.160156 376.085938 237.40625 376.085938 240.179688 L 376.085938 275.316406 C 376.085938 278.085938 373.839844 280.351562 371.070312 280.351562 L 335.949219 280.351562 C 333.160156 280.351562 330.914062 278.085938 330.914062 275.316406 L 330.914062 240.179688 C 330.914062 237.40625 333.160156 235.160156 335.949219 235.160156 Z M 366.03125 245.214844 L 340.96875 245.214844 L 340.96875 270.277344 L 366.03125 270.277344 L 366.03125 245.214844 " fill-opacity="1" fill-rule="nonzero"/><path fill="#a4536c" d="M 396.816406 235.160156 L 431.953125 235.160156 C 434.726562 235.160156 436.972656 237.40625 436.972656 240.179688 L 436.972656 275.316406 C 436.972656 278.085938 434.726562 280.351562 431.953125 280.351562 L 396.816406 280.351562 C 394.042969 280.351562 391.800781 278.085938 391.800781 275.316406 L 391.800781 240.179688 C 391.800781 237.40625 394.042969 235.160156 396.816406 235.160156 Z M 426.917969 245.214844 L 401.851562 245.214844 L 401.851562 270.277344 L 426.917969 270.277344 L 426.917969 245.214844 " fill-opacity="1" fill-rule="nonzero"/><path fill="#a4536c" d="M 457.703125 235.160156 L 492.820312 235.160156 C 495.613281 235.160156 497.859375 237.40625 497.859375 240.179688 L 497.859375 275.316406 C 497.859375 278.085938 495.613281 280.351562 492.820312 280.351562 L 457.703125 280.351562 C 454.929688 280.351562 452.6875 278.085938 452.6875 275.316406 L 452.6875 240.179688 C 452.6875 237.40625 454.929688 235.160156 457.703125 235.160156 Z M 487.804688 245.214844 L 462.738281 245.214844 L 462.738281 270.277344 L 487.804688 270.277344 L 487.804688 245.214844 " fill-opacity="1" fill-rule="nonzero"/><path fill="#a4536c" d="M 275.0625 299.5625 L 310.183594 299.5625 C 312.953125 299.5625 315.21875 301.804688 315.21875 304.578125 L 315.21875 339.714844 C 315.21875 342.488281 312.953125 344.734375 310.183594 344.734375 L 275.0625 344.734375 C 272.273438 344.734375 270.027344 342.488281 270.027344 339.714844 L 270.027344 304.578125 C 270.027344 301.804688 272.273438 299.5625 275.0625 299.5625 Z M 305.144531 309.613281 L 280.082031 309.613281 L 280.082031 334.679688 L 305.144531 334.679688 L 305.144531 309.613281 " fill-opacity="1" fill-rule="nonzero"/><path fill="#a4536c" d="M 335.949219 299.5625 L 371.070312 299.5625 C 373.839844 299.5625 376.085938 301.804688 376.085938 304.578125 L 376.085938 339.714844 C 376.085938 342.488281 373.839844 344.734375 371.070312 344.734375 L 335.949219 344.734375 C 333.160156 344.734375 330.914062 342.488281 330.914062 339.714844 L 330.914062 304.578125 C 330.914062 301.804688 333.160156 299.5625 335.949219 299.5625 Z M 366.03125 309.613281 L 340.96875 309.613281 L 340.96875 334.679688 L 366.03125 334.679688 L 366.03125 309.613281 " fill-opacity="1" fill-rule="nonzero"/><path fill="#a4536c" d="M 396.816406 299.5625 L 431.953125 299.5625 C 434.726562 299.5625 436.972656 301.804688 436.972656 304.578125 L 436.972656 339.714844 C 436.972656 342.488281 434.726562 344.734375 431.953125 344.734375 L 396.816406 344.734375 C 394.042969 344.734375 391.800781 342.488281 391.800781 339.714844 L 391.800781 304.578125 C 391.800781 301.804688 394.042969 299.5625 396.816406 299.5625 Z M 426.917969 309.613281 L 401.851562 309.613281 L 401.851562 334.679688 L 426.917969 334.679688 L 426.917969 309.613281 " fill-opacity="1" fill-rule="nonzero"/><path fill="#a4536c" d="M 457.703125 299.5625 L 492.820312 299.5625 C 495.613281 299.5625 497.859375 301.804688 497.859375 304.578125 L 497.859375 339.714844 C 497.859375 342.488281 495.613281 344.734375 492.820312 344.734375 L 457.703125 344.734375 C 454.929688 344.734375 452.6875 342.488281 452.6875 339.714844 L 452.6875 304.578125 C 452.6875 301.804688 454.929688 299.5625 457.703125 299.5625 Z M 487.804688 309.613281 L 462.738281 309.613281 L 462.738281 334.679688 L 487.804688 334.679688 L 487.804688 309.613281 " fill-opacity="1" fill-rule="nonzero"/><path fill="#a4536c" d="M 275.0625 363.941406 L 310.183594 363.941406 C 312.953125 363.941406 315.21875 366.207031 315.21875 368.976562 L 315.21875 404.097656 C 315.21875 406.886719 312.953125 409.132812 310.183594 409.132812 L 275.0625 409.132812 C 272.273438 409.132812 270.027344 406.886719 270.027344 404.097656 L 270.027344 368.976562 C 270.027344 366.207031 272.273438 363.941406 275.0625 363.941406 Z M 305.144531 374.015625 L 280.082031 374.015625 L 280.082031 399.078125 L 305.144531 399.078125 L 305.144531 374.015625 " fill-opacity="1" fill-rule="nonzero"/><path fill="#a4536c" d="M 335.949219 363.941406 L 371.070312 363.941406 C 373.839844 363.941406 376.085938 366.207031 376.085938 368.976562 L 376.085938 404.097656 C 376.085938 406.886719 373.839844 409.132812 371.070312 409.132812 L 335.949219 409.132812 C 333.160156 409.132812 330.914062 406.886719 330.914062 404.097656 L 330.914062 368.976562 C 330.914062 366.207031 333.160156 363.941406 335.949219 363.941406 Z M 366.03125 374.015625 L 340.96875 374.015625 L 340.96875 399.078125 L 366.03125 399.078125 L 366.03125 374.015625 " fill-opacity="1" fill-rule="nonzero"/><path fill="#a4536c" d="M 396.816406 363.941406 L 431.953125 363.941406 C 434.726562 363.941406 436.972656 366.207031 436.972656 368.976562 L 436.972656 404.097656 C 436.972656 406.886719 434.726562 409.132812 431.953125 409.132812 L 396.816406 409.132812 C 394.042969 409.132812 391.800781 406.886719 391.800781 404.097656 L 391.800781 368.976562 C 391.800781 366.207031 394.042969 363.941406 396.816406 363.941406 Z M 426.917969 374.015625 L 401.851562 374.015625 L 401.851562 399.078125 L 426.917969 399.078125 L 426.917969 374.015625 " fill-opacity="1" fill-rule="nonzero"/><path fill="#a4536c" d="M 457.703125 363.941406 L 492.820312 363.941406 C 495.613281 363.941406 497.859375 366.207031 497.859375 368.976562 L 497.859375 404.097656 C 497.859375 406.886719 495.613281 409.132812 492.820312 409.132812 L 457.703125 409.132812 C 454.929688 409.132812 452.6875 406.886719 452.6875 404.097656 L 452.6875 368.976562 C 452.6875 366.207031 454.929688 363.941406 457.703125 363.941406 Z M 487.804688 374.015625 L 462.738281 374.015625 L 462.738281 399.078125 L 487.804688 399.078125 L 487.804688 374.015625 " fill-opacity="1" fill-rule="nonzero"/><path fill="#a4536c" d="M 275.0625 428.339844 L 310.183594 428.339844 C 312.953125 428.339844 315.21875 430.605469 315.21875 433.378906 L 315.21875 468.496094 C 315.21875 471.289062 312.953125 473.53125 310.183594 473.53125 L 275.0625 473.53125 C 272.273438 473.53125 270.027344 471.289062 270.027344 468.496094 L 270.027344 433.378906 C 270.027344 430.605469 272.273438 428.339844 275.0625 428.339844 Z M 305.144531 438.414062 L 280.082031 438.414062 L 280.082031 463.480469 L 305.144531 463.480469 L 305.144531 438.414062 " fill-opacity="1" fill-rule="nonzero"/><path fill="#a4536c" d="M 457.703125 428.339844 L 492.820312 428.339844 C 495.613281 428.339844 497.859375 430.605469 497.859375 433.378906 L 497.859375 468.496094 C 497.859375 471.289062 495.613281 473.53125 492.820312 473.53125 L 457.703125 473.53125 C 454.929688 473.53125 452.6875 471.289062 452.6875 468.496094 L 452.6875 433.378906 C 452.6875 430.605469 454.929688 428.339844 457.703125 428.339844 Z M 487.804688 438.414062 L 462.738281 438.414062 L 462.738281 463.480469 L 487.804688 463.480469 L 487.804688 438.414062 " fill-opacity="1" fill-rule="nonzero"/><path fill="#a4536c" d="M 275.0625 492.742188 L 310.183594 492.742188 C 312.953125 492.742188 315.21875 494.988281 315.21875 497.777344 L 315.21875 532.898438 C 315.21875 535.667969 312.953125 537.933594 310.183594 537.933594 L 275.0625 537.933594 C 272.273438 537.933594 270.027344 535.667969 270.027344 532.898438 L 270.027344 497.777344 C 270.027344 494.988281 272.273438 492.742188 275.0625 492.742188 Z M 305.144531 502.796875 L 280.082031 502.796875 L 280.082031 527.859375 L 305.144531 527.859375 L 305.144531 502.796875 " fill-opacity="1" fill-rule="nonzero"/><path fill="#a4536c" d="M 457.703125 492.742188 L 492.820312 492.742188 C 495.613281 492.742188 497.859375 494.988281 497.859375 497.777344 L 497.859375 532.898438 C 497.859375 535.667969 495.613281 537.933594 492.820312 537.933594 L 457.703125 537.933594 C 454.929688 537.933594 452.6875 535.667969 452.6875 532.898438 L 452.6875 497.777344 C 452.6875 494.988281 454.929688 492.742188 457.703125 492.742188 Z M 487.804688 502.796875 L 462.738281 502.796875 L 462.738281 527.859375 L 487.804688 527.859375 L 487.804688 502.796875 " fill-opacity="1" fill-rule="nonzero"/><path fill="#a4536c" d="M 275.0625 557.140625 L 310.183594 557.140625 C 312.953125 557.140625 315.21875 559.386719 315.21875 562.179688 L 315.21875 597.296875 C 315.21875 600.070312 312.953125 602.332031 310.183594 602.332031 L 275.0625 602.332031 C 272.273438 602.332031 270.027344 600.070312 270.027344 597.296875 L 270.027344 562.179688 C 270.027344 559.386719 272.273438 557.140625 275.0625 557.140625 Z M 305.144531 567.195312 L 280.082031 567.195312 L 280.082031 592.261719 L 305.144531 592.261719 L 305.144531 567.195312 " fill-opacity="1" fill-rule="nonzero"/><path fill="#a4536c" d="M 457.703125 557.140625 L 492.820312 557.140625 C 495.613281 557.140625 497.859375 559.386719 497.859375 562.179688 L 497.859375 597.296875 C 497.859375 600.070312 495.613281 602.332031 492.820312 602.332031 L 457.703125 602.332031 C 454.929688 602.332031 452.6875 600.070312 452.6875 597.296875 L 452.6875 562.179688 C 452.6875 559.386719 454.929688 557.140625 457.703125 557.140625 Z M 487.804688 567.195312 L 462.738281 567.195312 L 462.738281 592.261719 L 487.804688 592.261719 L 487.804688 567.195312 " fill-opacity="1" fill-rule="nonzero"/><path fill="#a4536c" d="M 627.242188 429.882812 C 627.242188 427.113281 625 424.847656 622.207031 424.847656 C 619.433594 424.847656 617.171875 427.113281 617.171875 429.882812 L 617.171875 628.707031 C 617.171875 631.496094 619.433594 633.742188 622.207031 633.742188 C 625 633.742188 627.242188 631.496094 627.242188 628.707031 L 627.242188 429.882812 " fill-opacity="1" fill-rule="nonzero"/><path fill="#a4536c" d="M 601.476562 409.757812 C 601.476562 406.984375 599.230469 404.742188 596.460938 404.742188 C 593.667969 404.742188 591.421875 406.984375 591.421875 409.757812 L 591.421875 628.707031 C 591.421875 631.496094 593.667969 633.742188 596.460938 633.742188 C 599.230469 633.742188 601.476562 631.496094 601.476562 628.707031 L 601.476562 409.757812 " fill-opacity="1" fill-rule="nonzero"/><path fill="#a4536c" d="M 575.726562 389.632812 C 575.726562 386.859375 573.464844 384.613281 570.691406 384.613281 C 567.917969 384.613281 565.65625 386.859375 565.65625 389.632812 L 565.65625 628.707031 C 565.65625 631.496094 567.917969 633.742188 570.691406 633.742188 C 573.464844 633.742188 575.726562 631.496094 575.726562 628.707031 L 575.726562 389.632812 " fill-opacity="1" fill-rule="nonzero"/><path fill="#a4536c" d="M 549.960938 369.523438 C 549.960938 366.734375 547.714844 364.488281 544.941406 364.488281 C 542.152344 364.488281 539.90625 366.734375 539.90625 369.523438 L 539.90625 628.707031 C 539.90625 631.496094 542.152344 633.742188 544.941406 633.742188 C 547.714844 633.742188 549.960938 631.496094 549.960938 628.707031 L 549.960938 369.523438 " fill-opacity="1" fill-rule="nonzero"/><path fill="#a4536c" d="M 332.4375 424.105469 L 435.46875 424.105469 C 438.242188 424.105469 440.484375 426.351562 440.484375 429.140625 L 440.484375 628.707031 C 440.484375 631.496094 438.242188 633.742188 435.46875 633.742188 L 332.4375 633.742188 C 329.644531 633.742188 327.398438 631.496094 327.398438 628.707031 L 327.398438 429.140625 C 327.398438 426.351562 329.644531 424.105469 332.4375 424.105469 Z M 430.433594 434.160156 L 337.453125 434.160156 L 337.453125 623.6875 L 430.433594 623.6875 L 430.433594 434.160156 " fill-opacity="1" fill-rule="nonzero"/><path fill="#a4536c" d="M 388.96875 528.933594 C 388.96875 526.140625 386.722656 523.898438 383.953125 523.898438 C 381.160156 523.898438 378.914062 526.140625 378.914062 528.933594 L 378.914062 628.707031 C 378.914062 631.496094 381.160156 633.742188 383.953125 633.742188 C 386.722656 633.742188 388.96875 631.496094 388.96875 628.707031 L 388.96875 528.933594 " fill-opacity="1" fill-rule="nonzero"/><path fill="#a4536c" d="M 435.46875 459.925781 C 438.242188 459.925781 440.484375 457.683594 440.484375 454.890625 C 440.484375 452.117188 438.242188 449.875 435.46875 449.875 L 332.4375 449.875 C 329.644531 449.875 327.398438 452.117188 327.398438 454.890625 C 327.398438 457.683594 329.644531 459.925781 332.4375 459.925781 L 435.46875 459.925781 " fill-opacity="1" fill-rule="nonzero"/><path fill="#a4536c" d="M 435.46875 485.695312 C 438.242188 485.695312 440.484375 483.429688 440.484375 480.660156 C 440.484375 477.867188 438.242188 475.621094 435.46875 475.621094 L 332.4375 475.621094 C 329.644531 475.621094 327.398438 477.867188 327.398438 480.660156 C 327.398438 483.429688 329.644531 485.695312 332.4375 485.695312 L 435.46875 485.695312 " fill-opacity="1" fill-rule="nonzero"/><path fill="#a4536c" d="M 124.945312 623.6875 L 243.671875 623.6875 L 243.671875 294.484375 L 124.945312 387.230469 Z M 248.710938 633.742188 L 119.910156 633.742188 C 117.136719 633.742188 114.894531 631.496094 114.894531 628.707031 L 114.894531 384.808594 C 114.894531 383.304688 115.558594 381.84375 116.824219 380.847656 L 119.910156 384.808594 L 116.824219 380.867188 L 245.292969 280.507812 C 246.191406 279.667969 247.382812 279.160156 248.710938 279.160156 C 251.480469 279.160156 253.746094 281.40625 253.746094 284.199219 L 253.746094 628.707031 C 253.746094 631.496094 251.480469 633.742188 248.710938 633.742188 " fill-opacity="1" fill-rule="nonzero"/><path fill="#a4536c" d="M 150.714844 429.882812 C 150.714844 427.113281 148.449219 424.847656 145.679688 424.847656 C 142.90625 424.847656 140.640625 427.113281 140.640625 429.882812 L 140.640625 628.707031 C 140.640625 631.496094 142.90625 633.742188 145.679688 633.742188 C 148.449219 633.742188 150.714844 631.496094 150.714844 628.707031 L 150.714844 429.882812 " fill-opacity="1" fill-rule="nonzero"/><path fill="#a4536c" d="M 176.460938 409.757812 C 176.460938 406.984375 174.21875 404.742188 171.425781 404.742188 C 168.652344 404.742188 166.410156 406.984375 166.410156 409.757812 L 166.410156 628.707031 C 166.410156 631.496094 168.652344 633.742188 171.425781 633.742188 C 174.21875 633.742188 176.460938 631.496094 176.460938 628.707031 L 176.460938 409.757812 " fill-opacity="1" fill-rule="nonzero"/><path fill="#a4536c" d="M 202.230469 389.632812 C 202.230469 386.859375 199.964844 384.613281 197.195312 384.613281 C 194.421875 384.613281 192.15625 386.859375 192.15625 389.632812 L 192.15625 628.707031 C 192.15625 631.496094 194.421875 633.742188 197.195312 633.742188 C 199.964844 633.742188 202.230469 631.496094 202.230469 628.707031 L 202.230469 389.632812 " fill-opacity="1" fill-rule="nonzero"/><path fill="#a4536c" d="M 227.980469 369.523438 C 227.980469 366.734375 225.734375 364.488281 222.960938 364.488281 C 220.171875 364.488281 217.925781 366.734375 217.925781 369.523438 L 217.925781 628.707031 C 217.925781 631.496094 220.171875 633.742188 222.960938 633.742188 C 225.734375 633.742188 227.980469 631.496094 227.980469 628.707031 L 227.980469 369.523438 " fill-opacity="1" fill-rule="nonzero"/><path fill="#a4536c" d="M 313.773438 169.707031 L 454.109375 169.707031 C 456.902344 169.707031 459.148438 171.972656 459.148438 174.742188 L 459.148438 203.691406 C 459.148438 206.464844 456.902344 208.730469 454.109375 208.730469 L 313.773438 208.730469 C 310.984375 208.730469 308.738281 206.464844 308.738281 203.691406 L 308.738281 174.742188 C 308.738281 171.972656 310.984375 169.707031 313.773438 169.707031 Z M 449.09375 179.78125 L 318.789062 179.78125 L 318.789062 198.65625 L 449.09375 198.65625 L 449.09375 179.78125 " fill-opacity="1" fill-rule="nonzero"/><g clip-path="url(#f38a2cd24e)"><path fill="#a4536c" d="M 289.292969 169.707031 L 478.589844 169.707031 L 478.589844 112.199219 L 289.292969 112.199219 Z M 483.628906 179.78125 L 284.257812 179.78125 C 281.484375 179.78125 279.222656 177.515625 279.222656 174.742188 L 279.222656 107.160156 C 279.222656 104.371094 281.484375 102.125 284.257812 102.125 L 483.628906 102.125 C 486.398438 102.125 488.664062 104.371094 488.664062 107.160156 L 488.664062 174.742188 C 488.664062 177.515625 486.398438 179.78125 483.628906 179.78125 " fill-opacity="1" fill-rule="nonzero"/></g><path fill="#a4536c" d="M 308.09375 157.699219 L 308.09375 124.183594 L 314.886719 124.183594 L 314.886719 137.398438 L 328.082031 137.398438 L 328.082031 124.183594 L 334.875 124.183594 L 334.875 157.699219 L 328.082031 157.699219 L 328.082031 143.058594 L 314.886719 143.058594 L 314.886719 157.699219 Z M 340.5 141.148438 C 340.5 137.730469 341.007812 134.863281 342.039062 132.539062 C 342.800781 130.820312 343.835938 129.296875 345.164062 127.929688 C 346.472656 126.585938 347.917969 125.570312 349.476562 124.90625 C 351.585938 124.027344 353.988281 123.578125 356.71875 123.578125 C 361.660156 123.578125 365.621094 125.121094 368.589844 128.183594 C 371.554688 131.25 373.039062 135.523438 373.039062 140.992188 C 373.039062 146.417969 371.554688 150.671875 368.609375 153.71875 C 365.679688 156.785156 361.738281 158.324219 356.816406 158.324219 C 351.820312 158.324219 347.859375 156.804688 344.910156 153.738281 C 341.960938 150.710938 340.5 146.515625 340.5 141.148438 Z M 347.46875 140.933594 C 347.46875 144.71875 348.367188 147.609375 350.101562 149.5625 C 351.859375 151.53125 354.105469 152.507812 356.796875 152.507812 C 359.511719 152.507812 361.71875 151.53125 363.457031 149.601562 C 365.191406 147.648438 366.050781 144.71875 366.050781 140.835938 C 366.050781 136.988281 365.210938 134.121094 363.535156 132.226562 C 361.835938 130.332031 359.609375 129.375 356.796875 129.375 C 354.007812 129.375 351.742188 130.351562 350.042969 132.265625 C 348.328125 134.179688 347.46875 137.066406 347.46875 140.933594 Z M 385.867188 157.699219 L 385.867188 129.863281 L 375.929688 129.863281 L 375.929688 124.183594 L 402.515625 124.183594 L 402.515625 129.863281 L 392.640625 129.863281 L 392.640625 157.699219 Z M 406.910156 157.699219 L 406.910156 124.183594 L 431.738281 124.183594 L 431.738281 129.863281 L 413.703125 129.863281 L 413.703125 137.300781 L 430.472656 137.300781 L 430.472656 142.960938 L 413.703125 142.960938 L 413.703125 152.039062 L 432.382812 152.039062 L 432.382812 157.699219 Z M 438.339844 157.699219 L 438.339844 124.476562 L 445.113281 124.476562 L 445.113281 152.039062 L 461.917969 152.039062 L 461.917969 157.699219 L 438.339844 157.699219 " fill-opacity="1" fill-rule="nonzero"/><g clip-path="url(#457e9a99a1)"><path fill="#a4536c" d="M 81.941406 623.6875 L 685.945312 623.6875 C 688.734375 623.6875 690.980469 625.933594 690.980469 628.707031 L 690.980469 660.976562 C 690.980469 663.746094 688.734375 665.992188 685.945312 665.992188 L 81.941406 665.992188 C 79.148438 665.992188 76.90625 663.746094 76.90625 660.976562 L 76.90625 628.707031 C 76.90625 625.933594 79.148438 623.6875 81.941406 623.6875 Z M 680.925781 633.742188 L 86.957031 633.742188 L 86.957031 655.9375 L 680.925781 655.9375 L 680.925781 633.742188 " fill-opacity="1" fill-rule="nonzero"/></g><path fill="#a4536c" d="M 669.664062 407.082031 L 516.148438 290.484375 L 519.175781 286.480469 L 516.128906 290.503906 C 514.839844 289.507812 514.136719 288.003906 514.136719 286.480469 L 514.136719 241.582031 C 514.136719 238.8125 516.402344 236.546875 519.175781 236.546875 C 520.523438 236.546875 521.75 237.074219 522.648438 237.933594 L 671.265625 358.4375 L 671.265625 358.417969 C 672.375 359.316406 673 360.601562 673.117188 361.929688 L 678.058594 402.769531 L 678.078125 402.769531 C 678.390625 405.542969 676.4375 408.039062 673.683594 408.371094 C 672.140625 408.566406 670.699219 408.039062 669.664062 407.082031 Z M 524.210938 284.023438 L 666.65625 392.207031 L 663.359375 364.9375 L 524.210938 252.125 L 524.210938 284.023438 " fill-opacity="1" fill-rule="nonzero"/><path fill="#a4536c" d="M 99.921875 392.207031 L 242.367188 284.023438 L 242.367188 252.125 L 103.21875 364.9375 Z M 247.402344 286.480469 L 250.429688 290.484375 L 96.914062 407.082031 C 95.859375 408.039062 94.414062 408.566406 92.894531 408.371094 C 90.140625 408.039062 88.167969 405.542969 88.5 402.769531 L 88.519531 402.769531 L 93.457031 361.929688 C 93.554688 360.601562 94.199219 359.316406 95.3125 358.417969 L 95.3125 358.4375 L 243.925781 237.933594 C 244.824219 237.074219 246.054688 236.546875 247.402344 236.546875 C 250.175781 236.546875 252.417969 238.8125 252.417969 241.582031 L 252.417969 286.480469 C 252.417969 288.003906 251.734375 289.507812 250.429688 290.503906 L 247.402344 286.480469 " fill-opacity="1" fill-rule="nonzero"/></svg>